<?xml version="1.0" encoding="utf-8"?>
<!-- Generator: Adobe Illustrator 19.0.0, SVG Export Plug-In . SVG Version: 6.00 Build 0)  -->
<svg version="1.1" id="Layer_1" xmlns="http://www.w3.org/2000/svg" xmlns:xlink="http://www.w3.org/1999/xlink" x="0px" y="0px"
	 viewBox="0 0 500 500" style="enable-background:new 0 0 500 500;" xml:space="preserve">
<style type="text/css">
	.st0{fill-rule:evenodd;clip-rule:evenodd;fill:url(#XMLID_55_);}
	.st1{fill-rule:evenodd;clip-rule:evenodd;fill:url(#XMLID_57_);}
	.st2{opacity:0.52;fill-rule:evenodd;clip-rule:evenodd;fill:url(#XMLID_62_);}
	.st3{opacity:0.58;fill-rule:evenodd;clip-rule:evenodd;fill:url(#XMLID_63_);}
	.st4{opacity:0.87;fill-rule:evenodd;clip-rule:evenodd;fill:url(#XMLID_64_);}
	.st5{fill-rule:evenodd;clip-rule:evenodd;fill:url(#XMLID_65_);}
	.st6{fill-rule:evenodd;clip-rule:evenodd;fill:url(#XMLID_66_);}
	.st7{fill-rule:evenodd;clip-rule:evenodd;fill:url(#XMLID_67_);}
	.st8{fill-rule:evenodd;clip-rule:evenodd;fill:url(#XMLID_68_);}
	.st9{fill-rule:evenodd;clip-rule:evenodd;fill:url(#XMLID_69_);}
	.st10{fill-rule:evenodd;clip-rule:evenodd;fill:url(#XMLID_70_);}
	.st11{fill-rule:evenodd;clip-rule:evenodd;fill:url(#XMLID_72_);}
	.st12{fill-rule:evenodd;clip-rule:evenodd;fill:url(#XMLID_74_);}
	.st13{fill:url(#XMLID_76_);}
	.st14{fill:url(#XMLID_77_);}
	.st15{fill:url(#XMLID_81_);}
	.st16{fill:url(#XMLID_82_);}
	.st17{fill:url(#XMLID_83_);}
	.st18{fill:url(#XMLID_84_);}
	.st19{fill:url(#XMLID_89_);}
	.st20{fill:url(#XMLID_90_);}
	.st21{fill:url(#XMLID_91_);}
	.st22{fill:url(#XMLID_92_);}
	.st23{fill:url(#XMLID_93_);}
	.st24{fill:url(#XMLID_94_);}
	.st25{fill:url(#XMLID_95_);}
</style>
<g id="XMLID_1_">
	<g id="XMLID_61_">
		<linearGradient id="XMLID_55_" gradientUnits="userSpaceOnUse" x1="123.2833" y1="207.6071" x2="136.3322" y2="219.6145">
			<stop  offset="0" style="stop-color:#424242"/>
			<stop  offset="0.5714" style="stop-color:#0D0D0D"/>
			<stop  offset="1" style="stop-color:#262626"/>
		</linearGradient>
		<path id="XMLID_35_" class="st0" d="M122.4,208.5c-1.4,2.2-1.9,4.2-1.5,6.3c0.4,1.9,1.4,3.4,3.2,4.5c1.7,1.1,4.4,1.4,8.1,1.1
			c4.7-0.3,7.1-1.3,7.1-2.9c0.3-2.7-0.8-5.6-3.1-8.7c-2.5-3.3-5.2-4.9-8-4.5C125.9,204.5,124,205.9,122.4,208.5L122.4,208.5z"/>
		<radialGradient id="XMLID_57_" cx="119.6048" cy="259.5343" r="44.8942" gradientUnits="userSpaceOnUse">
			<stop  offset="0" style="stop-color:#404040"/>
			<stop  offset="1" style="stop-color:#121212"/>
		</radialGradient>
		<path id="XMLID_75_" class="st1" d="M169.5,287.6c-1.3-2.6-2.9-5.3-4.8-7.9c-2.1-2.9-4.4-5.6-6.8-8c-2.3-2.3-4.7-4.3-7.2-6.1
			c-5.3-3.7-11.8-6.8-19.6-9.3c-2.9-0.9-5.7-1.4-8.4-1.5l-3.8,0.1l0.1-0.5l5.6-6.7c0.1-0.1,0.2-0.3,0.3-0.4c2.4-2.7,4.5-4.9,6.5-6.4
			c4.3,2.4,8.4,3,12.1,1.9c3-0.9,6.1-3,9.5-6.4c3.2-3.2,4.5-5.7,4-7.5c-1-2.9-3.3-4.4-7.1-4.3c-1.7,0-4,0.9-6.7,2.4
			c-2.1,1.2-3.7,2.3-4.6,3.2c-8.2-3.7-14.1-5.9-17.7-6.5c-13.4-2.4-25,1.9-34.8,12.8c-5.3,6-7.8,9.5-7.2,10.5
			c0.8,1.3,3.1,0.3,3.1,0.3c0.7-0.2,1.6-0.5,2.6-0.8c5.7-2,8.5-3.5,8.3-4.4l0.2-3.1c0.2-2.5,1.9-4.9,5-7c5.3-3.6,10.4-4.2,15.4-2
			c1.6,0.7,3.8,2.1,6.6,4c3.3,2.3,5.7,3.8,7.2,4.7c0.1,0.2,0.1,0.3-0.1,0.4c-2.9,2.4-5.7,5.2-8.5,8.1c-1.3,1.3-2.5,2.8-3.7,4.2
			l-3,4.2c-3.2,0.7-7.3,2.1-12.3,4.2c-7.6,3.6-13.6,7.1-18.1,10.4c-0.5,0.4-1,0.7-1.5,1.1c-5.6,4.5-9.8,9.5-12.2,14.9
			c-0.4,0.8-1.1,2.8,0.4,3.6c2.4,1.3,8.5,0.6,15.7-2.9c5.3-2.6,10.7-6.4,16.3-11.4c1.4-1.3,2.8-2.7,4.2-4.2c1.7-1.9,3.5-3.8,5.3-6
			l7-0.4c5.8,0.1,11.8,0.8,18.2,2c6.1,1.2,10.8,2.6,14,4.3c1.4,0.8,2.5,1.6,3.3,2.4c1.7,1.7,2.3,3.4,1.9,5.1l-0.7,1.9
			c-0.2,0.7-0.3,1.2-0.1,1.6c0.6,1.7,2.7,4,6.4,6.9c3.3,2.6,6.2,4.5,8.9,5.8c1.6,0.7,2.5,0.8,2.7,0.2
			C172.1,293.9,171.4,291.3,169.5,287.6z M145.1,230.2c1.8-0.9,3.5-1.4,5-1.7c1.8-0.3,3.1-0.1,3.8,0.5c0.6,0.5,0.6,1.1,0.1,1.7
			c-1.1,1.2-3.1,1.8-6.1,1.9c-2.6,0.1-4.3-0.1-5-0.7C142.6,231.6,143.3,231.1,145.1,230.2z M94,276.2c-9.5,8.7-28.9,17.6-16.4,1.7
			c6.8-8.7,25.9-11.6,25.9-11.6S102.5,268.3,94,276.2z"/>
		<radialGradient id="XMLID_62_" cx="165.7825" cy="288.4122" r="83.0301" gradientUnits="userSpaceOnUse">
			<stop  offset="0" style="stop-color:#0F0F0F"/>
			<stop  offset="1" style="stop-color:#1A1A1A"/>
		</radialGradient>
		<path id="XMLID_31_" class="st2" d="M169.5,287.6c-1.3-2.6-2.9-5.3-4.8-7.9c-2.1-2.9-4.4-5.6-6.8-8c-2.3-2.3-4.7-4.3-7.2-6.1
			c-5.3-3.7-11.8-6.8-19.6-9.3c-2.9-0.9-5.7-1.4-8.4-1.5l-3.8,0.1l-6.8,0.9c-3.2,0.7-7.3,2.1-12.3,4.2c-3.2,1.5-6.2,3-8.8,4.5
			l-2,5.7c7.2-2.9,14.6-4.1,14.6-4.1l6.5-0.6l7-0.4c5.8,0.1,11.8,0.8,18.2,2c6.1,1.2,10.8,2.6,14,4.3c1.4,0.8,2.5,1.6,3.3,2.4
			c1.7,1.7,2.3,3.4,1.9,5.1l-0.7,1.9c-0.2,0.7-0.3,1.2-0.1,1.6c0.6,1.7,2.7,4,6.4,6.9c3.3,2.6,6.2,4.5,8.9,5.8
			c1.6,0.7,2.5,0.8,2.7,0.2C172.1,293.9,171.4,291.3,169.5,287.6z"/>
		<radialGradient id="XMLID_63_" cx="127.6222" cy="253.0377" r="28.996" gradientUnits="userSpaceOnUse">
			<stop  offset="0.2562" style="stop-color:#404040"/>
			<stop  offset="0.3737" style="stop-color:#303030"/>
			<stop  offset="0.5578" style="stop-color:#1F1F1F"/>
			<stop  offset="0.7577" style="stop-color:#151515"/>
			<stop  offset="1" style="stop-color:#121212"/>
		</radialGradient>
		<path id="XMLID_71_" class="st3" d="M131.2,241.1c4.3,2.4,8.4,3,12.1,1.9c3-0.9,6.1-3,9.5-6.4c3.2-3.2,4.5-5.7,4-7.5
			c-1-2.9-3.3-4.4-7.1-4.3c-1.7,0-4,0.9-6.7,2.4c-2.1,1.2-3.7,2.3-4.6,3.2c-8.2-3.7-14.1-5.9-17.7-6.5c-13.4-2.4-25,1.9-34.8,12.8
			c-5.3,6-7.8,9.5-7.2,10.5c0.8,1.3,3.1,0.3,3.1,0.3c0.7-0.2,1.6-0.5,2.6-0.8c5.7-2,8.5-3.5,8.3-4.4l0.2-3.1c0.2-2.5,1.9-4.9,5-7
			c5.3-3.6,10.4-4.2,15.4-2c1.6,0.7,3.8,2.1,6.6,4c3.3,2.3,5.7,3.8,7.2,4.7C127.5,239.1,131.2,241.1,131.2,241.1z M145.1,230.2
			c1.8-0.9,3.5-1.4,5-1.7c1.8-0.3,3.1-0.1,3.8,0.5c0.6,0.5,0.6,1.1,0.1,1.7c-1.1,1.2-3.1,1.8-6.1,1.9c-2.6,0.1-4.3-0.1-5-0.7
			C142.6,231.6,143.3,231.1,145.1,230.2z"/>
		<linearGradient id="XMLID_64_" gradientUnits="userSpaceOnUse" x1="81.4333" y1="246.3411" x2="91.5948" y2="234.2548">
			<stop  offset="0" style="stop-color:#292929"/>
			<stop  offset="0.7545" style="stop-color:#7A7A7A"/>
			<stop  offset="0.9878" style="stop-color:#404040"/>
		</linearGradient>
		<path id="XMLID_28_" class="st4" d="M91.3,232.4c0.4,0.3-2,3.1-2,4c0,0.9,0.2,4.6-0.8,5.4c-1,0.8-3.2,2.7-5.1,3.5
			c-1.8,0.8-6.8,3-2.3-2.6C86.6,236,90.4,231.8,91.3,232.4z"/>
		<linearGradient id="XMLID_65_" gradientUnits="userSpaceOnUse" x1="115.5549" y1="224.1882" x2="146.0482" y2="235.5395">
			<stop  offset="0" style="stop-color:#7A7A7A"/>
			<stop  offset="4.081428e-002" style="stop-color:#747474"/>
			<stop  offset="0.3306" style="stop-color:#4D4D4D"/>
			<stop  offset="0.5967" style="stop-color:#313131"/>
			<stop  offset="0.8285" style="stop-color:#202020"/>
			<stop  offset="1" style="stop-color:#1A1A1A"/>
		</linearGradient>
		<path id="XMLID_27_" class="st5" d="M113.9,223.4c-0.3,0,8.4,3.5,14.8,7.8c5.2,3.4,17.7,4.8,17.3,3.3
			C123.2,222.5,116.9,223.7,113.9,223.4z"/>
		<linearGradient id="XMLID_66_" gradientUnits="userSpaceOnUse" x1="157.6874" y1="278.9876" x2="171.4077" y2="291.3545">
			<stop  offset="0" style="stop-color:#1A1A1A"/>
			<stop  offset="0.4167" style="stop-color:#1B1B1B"/>
			<stop  offset="0.5807" style="stop-color:#222222"/>
			<stop  offset="0.7002" style="stop-color:#2F2F2F"/>
			<stop  offset="0.7973" style="stop-color:#404040"/>
			<stop  offset="0.867" style="stop-color:#525252"/>
		</linearGradient>
		<path id="XMLID_26_" class="st6" d="M159.2,275.6c0,0,4.1,5.5,4.1,6.6s-0.1,7.1,1.2,8.1c1.2,1,5.3,4.4,5.8,2.8
			C171,290.9,160.1,273.9,159.2,275.6z"/>
		<linearGradient id="XMLID_67_" gradientUnits="userSpaceOnUse" x1="124.6835" y1="206.7211" x2="128.3211" y2="210.4554">
			<stop  offset="0" style="stop-color:#D1D1D1"/>
			<stop  offset="1" style="stop-color:#787878"/>
		</linearGradient>
		<path id="XMLID_25_" class="st7" d="M132.5,207.2c0,0-1.1-0.3-2.1,0.4c-1,0.6-5.1,4.6-6,5c-0.9,0.5-2.4,1.4-2.1-1
			c0.3-2.4,4-7.7,8-6.5C133.5,206,132.5,207.2,132.5,207.2z"/>
		<linearGradient id="XMLID_68_" gradientUnits="userSpaceOnUse" x1="69.4462" y1="288.8344" x2="73.9328" y2="280.6854">
			<stop  offset="0" style="stop-color:#1A1A1A"/>
			<stop  offset="0.2824" style="stop-color:#1E1E1E"/>
			<stop  offset="0.6009" style="stop-color:#2C2C2C"/>
			<stop  offset="0.9358" style="stop-color:#424242"/>
			<stop  offset="1" style="stop-color:#474747"/>
		</linearGradient>
		<path id="XMLID_24_" class="st8" d="M72.9,279.9c0,0-1.3,3.2-1.6,4.8c-0.3,2.1,1.1,1.8,1.3,2.5c0.2,0.7-1.1,2.7-2.9,2.8
			c-1.8,0.1-3.3-0.9,0-6.1C71.9,280.2,72.9,279.4,72.9,279.9z"/>
		<linearGradient id="XMLID_69_" gradientUnits="userSpaceOnUse" x1="124.6835" y1="206.7211" x2="128.3211" y2="210.4554">
			<stop  offset="0" style="stop-color:#D1D1D1"/>
			<stop  offset="1" style="stop-color:#787878"/>
		</linearGradient>
		<path id="XMLID_23_" class="st9" d="M132.5,207.2c0,0-1.1-0.3-2.1,0.4c-1,0.6-5.1,4.6-6,5c-0.9,0.5-2.4,1.4-2.1-1
			c0.3-2.4,4-7.7,8-6.5C133.5,206,132.5,207.2,132.5,207.2z"/>
		<radialGradient id="XMLID_70_" cx="121.6537" cy="247.4209" r="12.5738" gradientUnits="userSpaceOnUse">
			<stop  offset="0" style="stop-color:#424242"/>
			<stop  offset="6.695044e-002" style="stop-color:#3D3D3D"/>
			<stop  offset="0.41" style="stop-color:#252525"/>
			<stop  offset="0.7294" style="stop-color:#171717"/>
			<stop  offset="1" style="stop-color:#121212"/>
		</radialGradient>
		<path id="XMLID_22_" class="st10" d="M118.8,255l0.1-0.5l5.6-6.7c0.1-0.1,0.2-0.3,0.3-0.4c2.4-2.7,4.5-4.9,6.5-6.4
			c1.4,0.8-4.4-2.5-3.8-2.2c0.1,0.2,0.1,0.3-0.1,0.4c-2.9,2.4-5.7,5.2-8.5,8.1c-1.3,1.3-2.5,2.8-3.7,4.2l-3,4.2
			C110.6,256.2,118.8,255,118.8,255z"/>
		<radialGradient id="XMLID_72_" cx="90.6829" cy="281.6335" r="12.0597" gradientUnits="userSpaceOnUse">
			<stop  offset="0" style="stop-color:#404040"/>
			<stop  offset="1" style="stop-color:#121212"/>
		</radialGradient>
		<path id="XMLID_21_" class="st11" d="M103.5,266.3c0,0-1,2.1-9.5,9.9c-5.5,5.1-14.3,10.2-18.3,10.5c-0.2,1.3-0.2,2.5,0.1,3.6
			c2.5-0.5,5.3-1.5,8.4-3c5.3-2.6,10.7-6.4,16.3-11.4c1.4-1.3,2.8-2.7,4.2-4.2c1.7-1.9,3.5-3.8,5.3-6L103.5,266.3z"/>
		<radialGradient id="XMLID_74_" cx="120.4472" cy="252.2515" r="30.7204" gradientUnits="userSpaceOnUse">
			<stop  offset="0" style="stop-color:#969696"/>
			<stop  offset="0.2547" style="stop-color:#787878"/>
			<stop  offset="0.5501" style="stop-color:#5C5C5C"/>
			<stop  offset="0.8087" style="stop-color:#4B4B4B"/>
			<stop  offset="1" style="stop-color:#454545"/>
		</radialGradient>
		<path id="XMLID_20_" class="st12" d="M100.7,262.2c0,0,11.1-1.8,20-1.7c8.9,0.1,20.5,3,21.1,2.8c0.6-0.2-7.9-7.6-21.1-7.3
			C107.6,256.3,98.1,261.9,100.7,262.2z"/>
	</g>
	<g id="XMLID_2_">
		<g id="XMLID_49_">
			<linearGradient id="XMLID_76_" gradientUnits="userSpaceOnUse" x1="201.4103" y1="273.2814" x2="201.4103" y2="231.4015">
				<stop  offset="0" style="stop-color:#525252"/>
				<stop  offset="0.1341" style="stop-color:#3C3C3C"/>
				<stop  offset="0.3395" style="stop-color:#222222"/>
				<stop  offset="0.55" style="stop-color:#0F0F0F"/>
				<stop  offset="0.767" style="stop-color:#040404"/>
				<stop  offset="1" style="stop-color:#000000"/>
			</linearGradient>
			<polygon id="XMLID_19_" class="st13" points="224.7,238 224.7,231.4 180.4,231.4 180.4,238.5 208.6,238.5 176.8,265.7 
				176.8,273.3 226,273.3 226,266.2 191.6,266.2 			"/>
			<linearGradient id="XMLID_77_" gradientUnits="userSpaceOnUse" x1="254.9035" y1="273.2814" x2="254.9035" y2="231.4015">
				<stop  offset="0" style="stop-color:#525252"/>
				<stop  offset="0.1341" style="stop-color:#3C3C3C"/>
				<stop  offset="0.3395" style="stop-color:#222222"/>
				<stop  offset="0.55" style="stop-color:#0F0F0F"/>
				<stop  offset="0.767" style="stop-color:#040404"/>
				<stop  offset="1" style="stop-color:#000000"/>
			</linearGradient>
			<path id="XMLID_56_" class="st14" d="M277.3,254.8c-2-1.8-4.8-3.1-8.5-3.8c2.6-0.8,4.7-2,6.2-3.7c1.5-1.6,2.3-3.4,2.3-5.4
				c0-1.8-0.6-3.4-1.9-4.9c-1.2-1.5-2.8-2.6-4.6-3.5c-1.9-0.9-4-1.5-6.3-1.7c-2.4-0.3-5.9-0.4-10.7-0.4h-24.2v41.9h20.6
				c7.8,0,12.7-0.1,14.7-0.3c3.2-0.2,6-0.9,8.2-2c2.2-1.1,4-2.5,5.2-4.3c1.3-1.8,1.9-3.7,1.9-5.6
				C280.3,258.7,279.3,256.6,277.3,254.8z M241.8,238.4h7c5.8,0,9.2,0,10.5,0.1c2,0.2,3.6,0.7,4.6,1.5c1,0.8,1.5,1.9,1.5,3.2
				c0,1.4-0.6,2.4-1.8,3.3c-1.2,0.8-2.8,1.3-4.9,1.5c-1.2,0.1-4.1,0.1-8.9,0.1h-8V238.4z M265.9,264.3c-1.1,0.9-2.6,1.4-4.4,1.7
				c-1.2,0.2-4,0.3-8.4,0.3h-11.3V255h9.9c5.6,0,9.2,0.2,10.8,0.6c1.7,0.4,2.9,1,3.8,1.9c0.9,0.9,1.3,1.9,1.3,3.2
				C267.6,262.2,267.1,263.4,265.9,264.3z"/>
			<linearGradient id="XMLID_81_" gradientUnits="userSpaceOnUse" x1="302.3038" y1="272.834" x2="302.3038" y2="241.7485">
				<stop  offset="0" style="stop-color:#525252"/>
				<stop  offset="0.1341" style="stop-color:#3C3C3C"/>
				<stop  offset="0.3395" style="stop-color:#222222"/>
				<stop  offset="0.55" style="stop-color:#0F0F0F"/>
				<stop  offset="0.767" style="stop-color:#040404"/>
				<stop  offset="1" style="stop-color:#000000"/>
			</linearGradient>
			<path id="XMLID_53_" class="st15" d="M311.9,261.7c-1.3-0.9-2.9-1.8-4.9-2.6c4-0.4,6.9-1.4,8.9-2.9c2-1.5,3-3.4,3-5.8
				c0-1.8-0.7-3.5-2-4.9c-1.3-1.4-3.1-2.4-5.3-3c-2.2-0.6-5.7-0.8-10.5-0.8H282v31.1h9.1v-13h1.8c2.1,0,3.6,0.1,4.6,0.3
				c1,0.2,1.9,0.7,2.7,1.3c0.9,0.6,2.5,2.2,4.8,4.6l6.6,6.8h10.9l-5.5-6.1C314.9,264.4,313.2,262.7,311.9,261.7z M297.9,254.9h-6.8
				V247h7.1c3.7,0,5.9,0,6.7,0.1c1.5,0.2,2.6,0.6,3.4,1.2c0.8,0.6,1.2,1.5,1.2,2.5c0,0.9-0.3,1.7-0.9,2.3c-0.6,0.6-1.5,1.1-2.6,1.3
				C305,254.8,302.2,254.9,297.9,254.9z"/>
			<linearGradient id="XMLID_82_" gradientUnits="userSpaceOnUse" x1="339.2024" y1="273.3641" x2="339.2024" y2="241.7485">
				<stop  offset="0" style="stop-color:#525252"/>
				<stop  offset="0.1341" style="stop-color:#3C3C3C"/>
				<stop  offset="0.3395" style="stop-color:#222222"/>
				<stop  offset="0.55" style="stop-color:#0F0F0F"/>
				<stop  offset="0.767" style="stop-color:#040404"/>
				<stop  offset="1" style="stop-color:#000000"/>
			</linearGradient>
			<path id="XMLID_13_" class="st16" d="M348.1,258.9c0,2.5-0.1,4.2-0.4,5.3c-0.3,1.1-1.1,2-2.4,2.7c-1.3,0.7-3.3,1.1-5.9,1.1
				c-2.5,0-4.6-0.4-6-1.2c-1.5-0.8-2.4-1.8-2.8-3.1c-0.2-0.8-0.3-2.5-0.3-5.2v-16.8h-9.1v16.6c0,3.5,0.3,6.1,0.9,7.9
				c0.4,1.2,1.3,2.4,2.6,3.4c1.3,1.1,3.1,2,5.3,2.7c2.2,0.7,5.5,1,9.8,1c3.6,0,6.5-0.3,8.7-0.9c2.2-0.6,4-1.5,5.3-2.5
				c1.3-1.1,2.2-2.4,2.7-3.9c0.5-1.5,0.7-4.2,0.7-7.9v-16.3h-9.1V258.9z"/>
			<linearGradient id="XMLID_83_" gradientUnits="userSpaceOnUse" x1="376.5936" y1="273.3853" x2="376.5936" y2="241.2182">
				<stop  offset="0" style="stop-color:#525252"/>
				<stop  offset="0.1341" style="stop-color:#3C3C3C"/>
				<stop  offset="0.3395" style="stop-color:#222222"/>
				<stop  offset="0.55" style="stop-color:#0F0F0F"/>
				<stop  offset="0.767" style="stop-color:#040404"/>
				<stop  offset="1" style="stop-color:#000000"/>
			</linearGradient>
			<path id="XMLID_12_" class="st17" d="M388.2,255.7c-2.1-0.8-5.4-1.5-9.9-2.2c-4.4-0.7-7.2-1.4-8.4-2.1c-0.9-0.5-1.4-1.2-1.4-1.9
				c0-0.8,0.5-1.4,1.4-1.9c1.5-0.7,3.6-1.1,6.2-1.1c2.6,0,4.5,0.3,5.8,1c1.3,0.7,2.1,1.8,2.5,3.4l9.1-0.3c-0.1-2.9-1.6-5.1-4.5-6.8
				c-2.9-1.7-7.1-2.6-12.8-2.6c-3.5,0-6.4,0.4-8.9,1.1c-2.5,0.7-4.3,1.8-5.6,3.1c-1.3,1.4-2,2.9-2,4.4c0,2.5,1.4,4.5,4.2,6.3
				c2,1.2,5.4,2.2,10.3,3.1c3.8,0.7,6.2,1.1,7.3,1.4c1.6,0.4,2.7,0.8,3.3,1.3c0.6,0.5,0.9,1.1,0.9,1.9c0,1.1-0.7,2.1-2.2,3
				c-1.5,0.9-3.7,1.3-6.6,1.3c-2.8,0-5-0.5-6.6-1.4c-1.6-1-2.7-2.5-3.3-4.5l-8.9,0.6c0.6,3.5,2.4,6.1,5.5,7.9
				c3.1,1.8,7.5,2.7,13.2,2.7c3.9,0,7.2-0.4,9.8-1.1c2.6-0.8,4.7-1.9,6.1-3.5c1.4-1.6,2.2-3.2,2.2-5c0-2-0.6-3.6-1.8-5
				C392,257.5,390.3,256.4,388.2,255.7z"/>
			<linearGradient id="XMLID_84_" gradientUnits="userSpaceOnUse" x1="414.4318" y1="272.834" x2="414.4318" y2="241.7485">
				<stop  offset="0" style="stop-color:#525252"/>
				<stop  offset="0.1341" style="stop-color:#3C3C3C"/>
				<stop  offset="0.3395" style="stop-color:#222222"/>
				<stop  offset="0.55" style="stop-color:#0F0F0F"/>
				<stop  offset="0.767" style="stop-color:#040404"/>
				<stop  offset="1" style="stop-color:#000000"/>
			</linearGradient>
			<polygon id="XMLID_11_" class="st18" points="423.4,241.7 423.4,254 405.5,254 405.5,241.7 396.4,241.7 396.4,272.8 405.5,272.8 
				405.5,259.2 423.4,259.2 423.4,272.8 432.5,272.8 432.5,241.7 			"/>
		</g>
		<g id="XMLID_39_">
			<linearGradient id="XMLID_89_" gradientUnits="userSpaceOnUse" x1="202.5667" y1="255.3525" x2="202.5667" y2="231.4015">
				<stop  offset="0" style="stop-color:#3D3D3D"/>
				<stop  offset="1" style="stop-color:#878787"/>
			</linearGradient>
			<path id="XMLID_10_" class="st19" d="M224.7,231.4h-44.3v7.1h28.2l-17.3,14.8c4.6,1.1,8.7,1.8,13,2.1l20.4-17.4V231.4z"/>
			<linearGradient id="XMLID_90_" gradientUnits="userSpaceOnUse" x1="253.4165" y1="254.2013" x2="253.4165" y2="231.4015">
				<stop  offset="0" style="stop-color:#3D3D3D"/>
				<stop  offset="1" style="stop-color:#878787"/>
			</linearGradient>
			<path id="XMLID_45_" class="st20" d="M275,247.3c1.5-1.6,2.3-3.4,2.3-5.4c0-1.8-0.6-3.4-1.9-4.9c-1.2-1.5-2.8-2.6-4.6-3.5
				c-1.9-0.9-4-1.5-6.3-1.7c-2.4-0.3-5.9-0.4-10.7-0.4h-24.2v22.8c15.5-1.2,39-0.4,47,0c-1.9-1.4-4.5-2.5-7.7-3.1
				C271.4,250.2,273.5,249,275,247.3z M263.6,246.4c-1.2,0.8-2.8,1.3-4.9,1.5c-1.2,0.1-4.1,0.1-8.9,0.1h-8v-9.7h7
				c5.8,0,9.2,0,10.5,0.1c2,0.2,3.6,0.7,4.6,1.5c1,0.8,1.5,1.9,1.5,3.2C265.4,244.5,264.8,245.6,263.6,246.4z"/>
			<linearGradient id="XMLID_91_" gradientUnits="userSpaceOnUse" x1="300.4695" y1="255.1765" x2="300.4695" y2="241.7485">
				<stop  offset="0" style="stop-color:#3D3D3D"/>
				<stop  offset="1" style="stop-color:#878787"/>
			</linearGradient>
			<path id="XMLID_7_" class="st21" d="M317,245.6c-1.3-1.4-3.1-2.4-5.3-3c-2.2-0.6-5.7-0.8-10.5-0.8H282v13.4l9.1-0.3V247h7.1
				c3.7,0,5.9,0,6.7,0.1c1.5,0.2,2.6,0.6,3.4,1.2c0.8,0.6,1.2,1.5,1.2,2.5c0,0.9-0.3,1.7-0.9,2.3c-0.6,0.6-1.5,1.1-2.6,1.3
				c-0.2,0-0.4,0.1-0.7,0.1l12.4-0.3c0.8-1.1,1.2-2.4,1.2-3.9C319,248.6,318.3,247,317,245.6z"/>
			<linearGradient id="XMLID_92_" gradientUnits="userSpaceOnUse" x1="352.6611" y1="254.7378" x2="352.6611" y2="241.7485">
				<stop  offset="0" style="stop-color:#3D3D3D"/>
				<stop  offset="1" style="stop-color:#878787"/>
			</linearGradient>
			<polygon id="XMLID_6_" class="st22" points="348.1,241.7 348.1,254.2 357.2,254.7 357.2,241.7 			"/>
			<linearGradient id="XMLID_93_" gradientUnits="userSpaceOnUse" x1="325.7434" y1="254.9725" x2="325.7434" y2="241.7485">
				<stop  offset="0" style="stop-color:#3D3D3D"/>
				<stop  offset="1" style="stop-color:#878787"/>
			</linearGradient>
			<polygon id="XMLID_5_" class="st23" points="330.3,241.7 321.2,241.7 321.2,254.4 330.3,255 			"/>
			<linearGradient id="XMLID_94_" gradientUnits="userSpaceOnUse" x1="376.7632" y1="255.5502" x2="376.7632" y2="241.2182">
				<stop  offset="0" style="stop-color:#3D3D3D"/>
				<stop  offset="1" style="stop-color:#878787"/>
			</linearGradient>
			<path id="XMLID_4_" class="st24" d="M369.9,251.4c-0.9-0.5-1.4-1.2-1.4-1.9c0-0.8,0.5-1.4,1.4-1.9c1.5-0.7,3.6-1.1,6.2-1.1
				c2.6,0,4.5,0.3,5.8,1c1.3,0.7,2.1,1.8,2.5,3.4l9.1-0.3c-0.1-2.9-1.6-5.1-4.5-6.8c-2.9-1.7-7.1-2.6-12.8-2.6
				c-3.5,0-6.4,0.4-8.9,1.1c-2.5,0.7-4.3,1.8-5.6,3.1c-1.3,1.4-2,2.9-2,4.4c0,1.9,0.9,3.6,2.5,5.1l25.4,0.6
				c-2.1-0.7-5.3-1.4-9.5-2.1C373.9,252.7,371.1,252,369.9,251.4z"/>
			<linearGradient id="XMLID_95_" gradientUnits="userSpaceOnUse" x1="414.4318" y1="256.5059" x2="414.4318" y2="241.7485">
				<stop  offset="0" style="stop-color:#3D3D3D"/>
				<stop  offset="1" style="stop-color:#878787"/>
			</linearGradient>
			<polygon id="XMLID_36_" class="st25" points="423.4,241.7 423.4,254 405.5,254 405.5,241.7 396.4,241.7 396.4,255.7 432.5,256.5 
				432.5,241.7 			"/>
		</g>
	</g>
</g>
</svg>
